# xmcd
#
# Track frame offsets:
#	150
#	25763
#	50338
#	76025
#	95325
#	109488
#	130638
#	157488
#	184238
#	201025
#	227675
#	242500
#
# Disc length: 3526 seconds
#
# Revision: 0
# Processed by: cddbd v1.5.1PL0 Copyright (c) Steve Scherf et al.
# Submitted via: audiograbber 1.83.01
#
DISCID=950dc40c
DTITLE=Bülent Ersoy - Bir Sen, Bir De Ben
DYEAR=1900
DGENRE=
TTITLE0=Unutamazsin
TTITLE1=Beni Sevmeni Istiyorum
TTITLE2=Icimdeki Özlemi
TTITLE3=Ne Gelen Ne Soran Var
TTITLE4=Kaybolan Yillar
TTITLE5=Bir Sen, Bir De Ben
TTITLE6=Aksam Olmadan Gel
TTITLE7=Hesabim Var
TTITLE8=Hava Nasil Oralarda
TTITLE9=Gördü Gözlerim
TTITLE10=Böyle Ayrilik Olmaz
TTITLE11=Kar Tanesi
EXTD=
EXTT0=
EXTT1=
EXTT2=
EXTT3=
EXTT4=
EXTT5=
EXTT6=
EXTT7=
EXTT8=
EXTT9=
EXTT10=
EXTT11=
PLAYORDER=
